<?xml version="1.0" standalone="no"?><!DOCTYPE svg PUBLIC "-//W3C//DTD SVG 1.1//EN" "http://www.w3.org/Graphics/SVG/1.1/DTD/svg11.dtd"><svg t="1746275429039" class="icon" viewBox="0 0 1024 1024" version="1.1" xmlns="http://www.w3.org/2000/svg" p-id="23157" xmlns:xlink="http://www.w3.org/1999/xlink" width="200" height="200"><path d="M256 256a56.888889 56.888889 0 0 0-113.777778 0v682.666667a56.888889 56.888889 0 0 0 113.777778 0V256z m625.777778 0a56.888889 56.888889 0 0 0-113.777778 0v682.666667a56.888889 56.888889 0 0 0 113.777778 0V256z" fill="#DD2E44" p-id="23158"></path><path d="M1024 455.111111a56.888889 56.888889 0 0 1-56.888889 56.888889H56.888889a56.888889 56.888889 0 0 1 0-113.777778h910.222222a56.888889 56.888889 0 0 1 56.888889 56.888889z m-28.444444-256c0 31.402667-22.215111 48.896-56.888889 56.888889 0 0-85.333333 28.444444-426.666667 28.444444S85.333333 256 85.333333 256c-36.010667-7.566222-56.888889-25.486222-56.888889-56.888889s25.486222-56.888889 56.888889-56.888889h853.333334a56.888889 56.888889 0 0 1 56.888889 56.888889z" fill="#DD2E44" p-id="23159"></path><path d="M1021.326222 113.777778c0 31.402667-18.744889 51.114667-54.272 56.888889 0 0-113.777778 28.444444-455.082666 28.444444C170.695111 199.111111 56.945778 170.666667 56.945778 170.666667 23.637333 165.319111 3.100444 145.464889 3.100444 114.062222 3.100444 82.631111-2.901333 28.444444 28.501333 28.444444c0 0 113.749333 56.888889 483.470223 56.888889s483.498667-56.888889 483.498666-56.888889c31.431111 0 25.856 53.902222 25.856 85.333334z" fill="#292F33" p-id="23160"></path><path d="M568.888889 426.666667a56.888889 56.888889 0 0 1-113.777778 0V256a56.888889 56.888889 0 0 1 113.777778 0v170.666667z" fill="#DD2E44" p-id="23161"></path><path d="M312.888889 967.111111a56.888889 56.888889 0 0 1-56.888889 56.888889H142.222222a56.888889 56.888889 0 0 1 0-113.777778h113.777778a56.888889 56.888889 0 0 1 56.888889 56.888889z m625.777778 0a56.888889 56.888889 0 0 1-56.888889 56.888889h-113.777778a56.888889 56.888889 0 0 1 0-113.777778h113.777778a56.888889 56.888889 0 0 1 56.888889 56.888889z" fill="#292F33" p-id="23162"></path></svg>