<?xml version="1.0" standalone="no"?><!DOCTYPE svg PUBLIC "-//W3C//DTD SVG 1.1//EN" "http://www.w3.org/Graphics/SVG/1.1/DTD/svg11.dtd"><svg t="1746275103593" class="icon" viewBox="0 0 1024 1024" version="1.1" xmlns="http://www.w3.org/2000/svg" p-id="17658" xmlns:xlink="http://www.w3.org/1999/xlink" width="200" height="200"><path d="M1012 28.512l-3.424 1.664s-194.688 92.8-351.744 113.152c-79.104 10.24-194.336 20.512-297.184 26.464a2655.328 2655.328 0 0 1-137.184 4.992H220.8c-39.136 0.224-69.536-1.376-83.2-4.704A845.376 845.376 0 0 1 29.312 136.864l5.888 1.984-10.752-4.256 14.752 50.016-39.264 34.528 10.592 18.656 18.784 1.408 44.896 5.6 6.912 21.92 27.104 2.432 13.568 45.984 3.936 0.256s57.088 4.896 75.168 4.896c15.584 0 39.68-1.76 45.728-2.144l1.024 16.896 12.256 2.304v13.44l-34.08 30.304 6.656 1.184c-5.984 0.416-9.696 0.768-21.344 1.28-18.304 0.736-39.84 0.864-51.328-0.768-24.992-3.68-30.24-3.68-30.24-3.68h-2.432l-5.216 5.536-1.952 19.04h6.496l2.336 47.392 125.152-4.832-8.736 157.088-0.864 14.816-95.648-5.408-0.864-32.48h22.944l2.432-17.92 19.808-4.512 9.504-13.312-90.08-21.76-72.736 21.6 19.84 16.544h7.072l1.056 14.24 21.088 1.184v32.544l-26.08 6.688 8.096 17.248 4.48 2.912v35.2h14.624v140.64l-24.16 3.68 4.192 53.216 14.24 2.4-2.336 99.936 76.928 1.408-13.664-98.272 84.576-2.048-5.92 46.368-10.656 44.032 111.264 1.408 1.152-97.28 56.416-5.088-3.072 55.168-2.688 42.24h69.664l-2.272-98.144 7.52 1.152 2.848-59.392h-10.368l-2.464-14.496-5.6-55.04 2.08-58.208h12.576v-50.432l-15.52 1.152 1.696-34.4 18.4-1.824 0.928-15.008 7.328-1.056 21.76-16.608-77.952-16-72.928 16.16 12.16 20 10.208-0.864 2.304-0.16 1.44 18.848 17.504-0.864 0.16 28.768-65.12-1.504 2.272-37.408 2.528-39.52v-51.744l2.048-49.152 148.704-7.584 177.312-10.24 1.408 28.768-6.496 83.168-2.688 72.224-56.32-0.992-0.256-43.424 24.48-0.896 1.184-15.904 11.52-1.76-0.512-2.432 6.496-0.416 12.384-16.544-85.76-20.096-84.768 18.176 11.008 19.2 5.984-0.416v3.808h10.496v17.152l22.368 0.352-0.256 36.512h-22.496l-0.608 21.536 7.968 0.928-0.896 41.728 16.8 0.864-1.888 154.24-22.368 4.608 0.672 18.048h7.52v42.016h12.32l-2.976 51.424-4.768 56.064 92.576 2.432-2.944-50.016-5.888-36.192-0.928-25.312 56.544-1.024-1.76 42.752-0.352 56.736 44.064 3.488 53.408-2.144 22.752-6.688-10.656-32.416-2.272-42.656-3.424-24.864 52.608-1.92-2.432 31.648-0.256 64.64 31.488 2.944 26.912-0.672 17.76-5.536-7.968-60.768-2.08-36.768 10.656-1.152 0.256-38.176 3.424-0.736-1.152-18.336h-12.928l-2.08-22.496-0.992-114.848 9.472-0.256v-38.496l4.096 0.608v-19.68l-14.24-1.152 0.256-35.68 24.32-2.176-1.408-15.456 11.104-0.896-1.024-4.992 24.736-12.384-87.712-17.632-80.256 16.224 9.888 18.432 9.504-0.864 0.608 3.296h8.672l0.48 18.176 23.328-0.256 1.504 32.992-71.296-0.512-8.992-62.176-7.584-35.232-6.176-62.688 3.2-31.84 164.128-12.512 0.512-56.16 8.576-2.144-0.992-16.224-10.208-5.888h-1.568l-15.232 2.144-33.824 4.96a1167.36 1167.36 0 0 1-56.48 7.936l-12.864 1.28-8.16 0.864-0.608-7.584-33.504-17.504 0.256-11.744 11.552-0.352 0.864-28.672c3.84-0.256 15.008-1.024 32.896-2.656 20.64-1.92 44.384-4.48 58.08-7.68 25.472-5.984 61.952-12 61.952-12l3.232-0.512 17.408-47.264 34.336-9.984 2.816-7.84 75.936-20.992 13.056-10.752-30.592-66.72 2.016-10.08 14.688-7.68 12.672-38.656zM632.576 287.136l-0.416 22.432 17.376 0.736-0.672 13.664-33.664 22.112-3.68 11.008-79.36 3.84 0.416-7.84 4.768-7.712 0.416-6.528 0.032-9.728 2.848-6.656 1.312-6.816v-3.936l3.424-13.792z m-221.056 19.68l-1.824 11.264 8.48 9.984-0.608 16.512 7.52 11.52-2.016 13.984 1.056 1.504-78.816 3.168 0.864-6.496-27.872-15.104-0.928-14.72 12.416-0.608 1.184-25.504z m171.296 362.656l53.664 3.488-2.144 82.688 7.808 65.76-57.184-2.016z m-436.288 3.584l92.16 4.768-8.288 54.752v52l5.856 22.304-89.184 4.192z m656.064 0.448v138.912l-55.072 4-2.176-73.504-6.752-67.936z m-490.432 3.232l65.632 0.256 0.736 127.84-61.024 1.12-3.232-39.584-0.256-44.672z" fill="#B41717" p-id="17659"></path></svg>